# Blender 3.6.23
# www.blender.org
mtllib ballas.mtl
o balla
v -0.063183 -0.172713 0.802900
v -0.063183 0.626144 0.802900
v -0.061016 -0.172713 0.665593
v -0.061016 0.626144 0.665593
v 0.031255 -0.172713 0.804391
v 0.031255 0.626144 0.804391
v 0.033422 -0.172713 0.667083
v 0.033422 0.626144 0.667083
vn -0.9999 -0.0000 -0.0158
vn 0.0158 -0.0000 -0.9999
vn 0.9999 -0.0000 0.0158
vn -0.0158 -0.0000 0.9999
vn -0.0000 -1.0000 -0.0000
vn -0.0000 1.0000 -0.0000
vt 0.375000 0.000000
vt 0.625000 0.000000
vt 0.625000 0.250000
vt 0.375000 0.250000
vt 0.625000 0.500000
vt 0.375000 0.500000
vt 0.625000 0.750000
vt 0.375000 0.750000
vt 0.625000 1.000000
vt 0.375000 1.000000
vt 0.125000 0.500000
vt 0.125000 0.750000
vt 0.875000 0.500000
vt 0.875000 0.750000
s 0
f 1/1/1 2/2/1 4/3/1 3/4/1
f 3/4/2 4/3/2 8/5/2 7/6/2
f 7/6/3 8/5/3 6/7/3 5/8/3
f 5/8/4 6/7/4 2/9/4 1/10/4
f 3/11/5 7/6/5 5/8/5 1/12/5
f 8/5/6 4/13/6 2/14/6 6/7/6
o Cube.031
v -0.052735 -0.178464 0.141020
v -0.055156 0.605519 0.294440
v -0.050608 -0.152087 0.006269
v -0.053030 0.631896 0.159689
v 0.041703 -0.178464 0.142510
v 0.039281 0.605519 0.295931
v 0.043830 -0.152087 0.007760
v 0.041408 0.631896 0.161180
vn -0.9999 -0.0000 -0.0158
vn 0.0155 0.1921 -0.9813
vn 0.9999 -0.0000 0.0158
vn -0.0155 -0.1921 0.9813
vn 0.0030 -0.9814 -0.1921
vn -0.0030 0.9814 0.1921
vt 0.375000 0.000000
vt 0.625000 0.000000
vt 0.625000 0.250000
vt 0.375000 0.250000
vt 0.625000 0.500000
vt 0.375000 0.500000
vt 0.625000 0.750000
vt 0.375000 0.750000
vt 0.625000 1.000000
vt 0.375000 1.000000
vt 0.125000 0.500000
vt 0.125000 0.750000
vt 0.875000 0.500000
vt 0.875000 0.750000
s 0
f 9/15/7 10/16/7 12/17/7 11/18/7
f 11/18/8 12/17/8 16/19/8 15/20/8
f 15/20/9 16/19/9 14/21/9 13/22/9
f 13/22/10 14/21/10 10/23/10 9/24/10
f 11/25/11 15/20/11 13/22/11 9/26/11
f 16/19/12 12/27/12 10/28/12 14/21/12
o Cube.032
v -0.021767 0.318548 -0.294827
v -0.021767 0.415348 -0.294827
v 0.014089 0.318548 -0.295977
v 0.014089 0.415348 -0.295977
v -0.005868 0.318548 0.200868
v -0.005868 0.415348 0.200868
v 0.029988 0.318548 0.199718
v 0.029988 0.415348 0.199718
vn -0.0320 -0.0000 -0.9995
vn 0.9995 -0.0000 -0.0321
vn 0.0320 -0.0000 0.9995
vn -0.9995 -0.0000 0.0321
vn -0.0000 -1.0000 -0.0000
vn -0.0000 1.0000 -0.0000
vt 0.375000 0.000000
vt 0.625000 0.000000
vt 0.625000 0.250000
vt 0.375000 0.250000
vt 0.625000 0.500000
vt 0.375000 0.500000
vt 0.625000 0.750000
vt 0.375000 0.750000
vt 0.625000 1.000000
vt 0.375000 1.000000
vt 0.125000 0.500000
vt 0.125000 0.750000
vt 0.875000 0.500000
vt 0.875000 0.750000
s 0
f 17/29/13 18/30/13 20/31/13 19/32/13
f 19/32/14 20/31/14 24/33/14 23/34/14
f 23/34/15 24/33/15 22/35/15 21/36/15
f 21/36/16 22/35/16 18/37/16 17/38/16
f 19/39/17 23/34/17 21/36/17 17/40/17
f 24/33/18 20/41/18 18/42/18 22/35/18
o Cube.034
v -0.045830 -0.126582 -0.296458
v -0.047464 0.665534 -0.192910
v -0.043680 -0.108780 -0.432607
v -0.045315 0.683336 -0.329058
v 0.048609 -0.126582 -0.294967
v 0.046974 0.665534 -0.191419
v 0.050759 -0.108780 -0.431116
v 0.049124 0.683336 -0.327567
vn -0.9999 -0.0000 -0.0158
vn 0.0157 0.1296 -0.9914
vn 0.9999 -0.0000 0.0158
vn -0.0157 -0.1296 0.9914
vn 0.0020 -0.9916 -0.1296
vn -0.0020 0.9916 0.1296
vt 0.375000 0.000000
vt 0.625000 0.000000
vt 0.625000 0.250000
vt 0.375000 0.250000
vt 0.625000 0.500000
vt 0.375000 0.500000
vt 0.625000 0.750000
vt 0.375000 0.750000
vt 0.625000 1.000000
vt 0.375000 1.000000
vt 0.125000 0.500000
vt 0.125000 0.750000
vt 0.875000 0.500000
vt 0.875000 0.750000
s 0
f 25/43/19 26/44/19 28/45/19 27/46/19
f 27/46/20 28/45/20 32/47/20 31/48/20
f 31/48/21 32/47/21 30/49/21 29/50/21
f 29/50/22 30/49/22 26/51/22 25/52/22
f 27/53/23 31/48/23 29/50/23 25/54/23
f 32/47/24 28/55/24 26/56/24 30/49/24
o Cube.035
v -0.039647 -0.077420 -0.688060
v -0.040408 0.719980 -0.639830
v -0.037483 -0.069128 -0.825117
v -0.038244 0.728272 -0.776887
v 0.054791 -0.077420 -0.686569
v 0.054030 0.719980 -0.638339
v 0.056955 -0.069128 -0.823626
v 0.056193 0.728272 -0.775396
vn -0.9999 -0.0000 -0.0158
vn 0.0158 0.0604 -0.9981
vn 0.9999 -0.0000 0.0158
vn -0.0158 -0.0604 0.9981
vn 0.0010 -0.9982 -0.0604
vn -0.0010 0.9982 0.0604
vt 0.375000 0.000000
vt 0.625000 0.000000
vt 0.625000 0.250000
vt 0.375000 0.250000
vt 0.625000 0.500000
vt 0.375000 0.500000
vt 0.625000 0.750000
vt 0.375000 0.750000
vt 0.625000 1.000000
vt 0.375000 1.000000
vt 0.125000 0.500000
vt 0.125000 0.750000
vt 0.875000 0.500000
vt 0.875000 0.750000
s 0
f 33/57/25 34/58/25 36/59/25 35/60/25
f 35/60/26 36/59/26 40/61/26 39/62/26
f 39/62/27 40/61/27 38/63/27 37/64/27
f 37/64/28 38/63/28 34/65/28 33/66/28
f 35/67/29 39/62/29 37/64/29 33/68/29
f 40/61/30 36/69/30 34/70/30 38/63/30
o Cube.036
v -0.038597 0.150949 -0.819671
v -0.038597 0.247749 -0.819671
v -0.002742 0.150949 -0.820821
v -0.002742 0.247749 -0.820821
v -0.022700 0.150949 -0.323976
v -0.022700 0.247749 -0.323976
v 0.013157 0.150949 -0.325126
v 0.013157 0.247749 -0.325126
vn -0.0321 -0.0000 -0.9995
vn 0.9995 -0.0000 -0.0321
vn 0.0321 -0.0000 0.9995
vn -0.9995 -0.0000 0.0321
vn -0.0000 -1.0000 -0.0000
vn -0.0000 1.0000 -0.0000
vt 0.375000 0.000000
vt 0.625000 0.000000
vt 0.625000 0.250000
vt 0.375000 0.250000
vt 0.625000 0.500000
vt 0.375000 0.500000
vt 0.625000 0.750000
vt 0.375000 0.750000
vt 0.625000 1.000000
vt 0.375000 1.000000
vt 0.125000 0.500000
vt 0.125000 0.750000
vt 0.875000 0.500000
vt 0.875000 0.750000
s 0
f 41/71/31 42/72/31 44/73/31 43/74/31
f 43/74/32 44/73/32 48/75/32 47/76/32
f 47/76/33 48/75/33 46/77/33 45/78/33
f 45/78/34 46/77/34 42/79/34 41/80/34
f 43/81/35 47/76/35 45/78/35 41/82/35
f 48/75/36 44/83/36 42/84/36 46/77/36
